<?xml version="1.0" encoding="UTF-8"?>
<svg width="18px" height="15px" viewBox="0 0 18 15" version="1.1" xmlns="http://www.w3.org/2000/svg" xmlns:xlink="http://www.w3.org/1999/xlink">
    <!-- Generator: Sketch 47.1 (45422) - http://www.bohemiancoding.com/sketch -->
    <title>Icon</title>
    <desc>Created with Sketch.</desc>
    <defs></defs>
    <g id="WEB-PISOTON-2" stroke="none" stroke-width="1" fill="none" fill-rule="evenodd">
        <g id="MAESTROS-DESKTOP-1440--Copy-2" transform="translate(-1205.000000, -1259.000000)" fill="#FFFFFF">
            <g id="VIDEO-BLOG" transform="translate(217.000000, 931.000000)">
                <g id="VIDEO-BLOG-QUE-HAGO" transform="translate(327.000000, 0.000000)">
                    <path d="M670.73361,328.080093 C671.022049,327.871966 671.409707,328.093687 671.409707,328.466346 L671.409707,342.533654 C671.409707,342.906313 671.022049,343.128034 670.73361,342.919907 L665.089951,338.842216 C665.01839,338.790653 664.934098,338.762997 664.848049,338.762997 L661.433756,338.762997 C661.194049,338.762997 661,338.554401 661,338.297524 L661,332.708101 C661,332.450755 661.194049,332.242629 661.433756,332.242629 L664.840146,332.242629 C664.926634,332.242629 665.010927,332.214972 665.082488,332.16294 L670.73361,328.080093 Z M673.902049,338.392681 L673.482341,337.591112 C673.382244,337.39986 673.42922,337.165483 673.581122,337.0197 C673.930146,336.68501 674.136927,336.201256 674.136927,335.68797 C674.136927,335.183591 673.936293,334.705462 673.596927,334.371709 C673.446341,334.223114 673.402,333.988268 673.504293,333.797954 L673.933659,333.002479 C674.061415,332.76482 674.357756,332.698726 674.557073,332.869353 C675.345561,333.546233 675.819707,334.585461 675.819707,335.68797 C675.819707,336.808292 675.333268,337.857833 674.524585,338.533776 C674.323073,338.702059 674.02761,338.632214 673.902049,338.392681 Z M677.31722,335.68797 C677.31722,333.941393 676.505902,332.399192 675.271366,331.467778 C675.093561,331.333715 675.049659,331.069806 675.16161,330.869648 L675.596244,330.092923 C675.723561,329.86464 676.001902,329.80792 676.204732,329.959328 C677.890585,331.217464 679,333.312794 679,335.68797 C679,338.124085 677.834829,340.269572 676.075659,341.51552 C675.866244,341.663646 675.585268,341.595677 675.465415,341.358487 L675.061951,340.559262 C674.960537,340.358166 675.009707,340.100352 675.186195,339.973319 C676.469463,339.049405 677.31722,337.474392 677.31722,335.68797 Z" id="Icon"></path>
                </g>
            </g>
        </g>
    </g>
</svg>