<?xml version="1.0" encoding="UTF-8"?>
<svg width="99px" height="32px" viewBox="0 0 99 32" version="1.1" xmlns="http://www.w3.org/2000/svg" xmlns:xlink="http://www.w3.org/1999/xlink">
    <!-- Generator: Sketch 47.1 (45422) - http://www.bohemiancoding.com/sketch -->
    <title>LOGO_P Copy</title>
    <desc>Created with Sketch.</desc>
    <defs></defs>
    <g id="WEB-PISOTON-2" stroke="none" stroke-width="1" fill="none" fill-rule="evenodd">
        <g id="PISOTON-DESKTOP-1440" transform="translate(-310.000000, -4966.000000)">
            <g id="FOOTER_2" transform="translate(0.000000, 4540.000000)">
                <g id="LOGO_P-Copy" transform="translate(310.000000, 426.000000)">
                    <path d="M12.869803,22.2412333 C12.8839022,22.2370745 12.8981074,22.2330198 12.9122066,22.228861 L12.9359526,22.63756 C12.9135847,22.503441 12.8915349,22.3709856 12.869803,22.2412333 M98.9961281,7.18247981 C98.9837251,6.17960259 98.9782126,5.7219346 98.5661559,5.33860386 L98.175831,4.97814613 L97.6578713,5.02056515 L89.7062469,5.52668233 L89.6843031,5.52824185 C89.0108283,5.58334499 88.4338217,5.94016384 88.0845222,6.45480641 C87.7717958,6.09102169 87.2644371,5.7451195 86.4395815,5.7451195 L86.386153,5.7451195 L81.3641916,6.18979148 L83.9298199,3.04444166 C84.2634301,2.63563871 84.3561879,2.09697949 84.1779869,1.6033385 C83.9996798,1.1096975 83.5820046,0.748200088 83.0605466,0.63633031 L80.2573523,0.0349782663 C79.6198146,-0.101428006 78.9530183,0.16899327 78.5999026,0.70890011 L76.1768563,4.41619803 C76.0658649,4.58597809 75.9936729,4.77239307 75.9569938,4.9648382 C75.7799588,4.94643583 75.6004857,4.93437552 75.4166662,4.93354377 C74.7792345,4.78653274 74.1279156,4.71198754 73.4781868,4.71198754 C72.3322302,4.71198754 71.1967684,4.93905408 70.1171734,5.37821574 C70.0467835,4.93281599 69.8948727,4.49219878 69.6092846,4.12300772 C69.1775102,3.56480247 68.5136822,3.25747249 67.740453,3.25747249 L50.4296176,3.74061269 C49.3235204,3.77221902 48.4046349,4.53368209 48.1671749,5.56327913 C47.3511181,5.14855 46.4992302,4.93749456 45.619038,4.93354377 C44.9816063,4.78653274 44.3302874,4.71198754 43.6806646,4.71198754 C42.2235718,4.71198754 40.8022039,5.07130163 39.4840888,5.76445759 C39.4699896,5.74262427 39.4552544,5.72110285 39.4397771,5.69999731 C39.2416464,5.43051174 38.9351745,5.25376581 38.5954159,5.21446583 C37.6628553,5.10966589 36.7450299,5.037408 35.8658978,4.99966754 C31.2091372,4.1534704 27.1850379,5.45369665 24.9600163,6.45366276 C24.6133671,5.91635512 23.9865362,5.60268308 23.3148636,5.66454415 L18.8886725,6.07147567 C17.9422247,5.14532698 16.7111429,4.34477188 15.2931673,3.73718174 C13.2710469,2.87081477 10.9799817,2.48218165 8.67577143,2.61328555 L5.95102372,2.74449341 L1.13143339,3.05255118 C0.496969898,3.09341068 0,3.61377149 0,4.23737273 L0,28.9841946 C0,29.3035848 0.133995297,29.6142418 0.367745004,29.8366298 C0.601494711,30.0587059 0.918143407,30.1835717 1.24634708,30.1709915 L12.7006128,29.8406845 C13.0576509,29.8310155 13.3904129,29.6683053 13.6132437,29.3943491 C13.6297811,29.3739713 13.6456824,29.3532816 13.6606297,29.3320721 C14.0689761,29.9069123 14.743935,30.2866041 15.5002028,30.2973129 L22.0816617,30.3893247 C25.6866016,31.7633684 28.8400494,32 30.5861226,32 C31.3885043,32 31.8936369,31.9499913 32.0081265,31.9374111 C34.4465441,31.7152311 36.4194764,31.0151093 37.8919406,29.8518091 C39.6175541,31.2238774 41.5992851,31.9434413 43.6806646,31.9434413 C46.3847406,31.9434413 48.96362,30.6980063 50.9552099,28.4332671 C51.265074,28.191749 51.5559626,27.9278777 51.8267094,27.6420691 L51.7558954,29.3028571 C51.7258949,29.9848884 51.9985499,30.6451904 52.5040005,31.1146068 C53.0095571,31.5840232 53.6969191,31.8146247 54.3896875,31.7486049 L63.2717523,30.8945062 C63.9196789,30.8322292 64.5010319,30.5238596 64.9090603,30.0264757 C65.1923162,29.6807815 65.3669129,29.2743698 65.4215075,28.8475803 C65.4819326,28.7981954 65.5375873,28.7431963 65.5874115,28.6827908 C65.7438807,28.4932567 65.8364265,28.2584965 65.854024,28.018226 C67.8903497,30.5516191 70.5896553,31.9434413 73.4781868,31.9434413 C75.7206998,31.9434413 77.8771336,31.0868473 79.6836319,29.5029958 C80.016394,30.1574756 80.6893387,30.6189905 81.4840877,30.6605777 L88.319438,31.0005537 C88.9277173,31.0320561 89.5226394,30.806757 89.9510216,30.3814231 C90.0013758,30.3313105 90.0489738,30.2792224 90.0936036,30.224847 C90.5643893,30.8408586 91.3611524,31.1674227 92.1543113,31.0376704 L96.7689864,30.172655 C97.7864601,29.9983003 98.5251304,29.1445135 98.5353073,28.1318633 C98.5448481,27.8193349 98.7075718,22.5254823 98.8365847,17.2688503 C98.9146073,14.099172 98.9650675,11.562244 98.9871174,9.72824505 C99.0003685,8.63294011 99.0034428,7.77645011 98.9961281,7.18247981" id="Fill-1" fill="#0070AC"></path>
                    <path d="M46.5536862,22.876808 C45.1043721,22.876808 43.9294899,21.3016324 43.9294899,19.3585303 C43.9294899,17.4154281 45.1043721,15.8402525 46.5536862,15.8402525 C48.0030004,15.8402525 49.0637591,17.4154281 49.0637591,19.3585303 C49.0637591,21.3016324 48.0030004,22.876808 46.5536862,22.876808 M45.4683883,6 C41.6355551,6 36,10.2878978 36,17.2040485 C36,28.7589852 43.1007287,27.9893651 45.4145949,27.9893651 C48.1581655,27.9893651 50.771003,26.2447347 52.0316117,23.2773657 C52.8573725,21.3337472 53,19.2604303 53,16.9946309 C53,12.2827348 49.3011144,6 45.4683883,6" id="Fill-3" fill="#FFCE00"></path>
                    <path d="M12.2155,27.169 C12.2795,27.105 12.2,27.0495 12,27 C12.0825,27.1645 12.155,27.2295 12.2155,27.169" id="Fill-5" fill="#000000"></path>
                    <path d="M83,1.69322075 L79.7695847,1.00773517 C79.628411,0.977841368 79.4828638,1.03624774 79.4048521,1.15434305 L77.0547379,4.7105215 C76.937161,4.88860174 77.0166984,5.12656824 77.2197118,5.20362124 L79.3180934,6 L83,1.69322075 Z" id="Fill-7" fill="#00418D"></path>
                    <polygon id="Fill-9" fill="#B37B00" points="78 5.1110972 79.9999632 6 84 1.66672928 80.5882396 1"></polygon>
                    <polygon id="Fill-11" fill="#FFCE00" points="78 6.26832062 79.5554558 7 83 2.60969464 80.3332359 2"></polygon>
                    <path d="M80,8.13862243 L80.230829,28.651142 C80.230829,29.151609 80.634292,29.564581 81.1492682,29.5912922 L88.1398099,29.9350674 C88.7203502,29.9651438 89.1975051,29.496541 89.1595754,28.933818 L88.8845313,26.072775 L90.7620487,29.4646769 C90.9484458,29.8430505 91.3704402,30.0561091 91.796661,29.9871227 L96.4970108,29.1149074 C96.9647375,29.0394009 97.3076215,28.6465149 97.3076215,28.1863251 L98,6.94156102 C98,6.39072138 97.5148257,5.9576634 96.9491321,6.0033038 L89.5717081,6.51596957 C89.0572738,6.5576138 88.6664901,6.98288977 88.6826373,7.48356704 L88.9999458,11.6287458 L87.0088563,7.12643618 C86.8119472,6.8625842 86.4886783,6.71630357 86.1539221,6.73943926 L80.9009916,7.19952392 C80.3933846,7.23475326 80,7.64467554 80,8.13862243" id="Fill-13" fill="#00418D"></path>
                    <polygon id="Fill-15" fill="#B37B00" points="82 12.0555466 82 7.05557506 86.7829726 6.61111691 91.2242202 14.5000142 90.5978849 6.44445815 98 6 97.3166571 27.2222243 92.6476998 28 88.7188791 21.2778184 89.1744054 27.722305 82.2278166 27.3889874 82.2278166 23.8333223"></polygon>
                    <polygon id="Fill-17" fill="#FFCE00" points="82 27.5507903 82 8.01074821 85.692211 7.67376182 91.2308526 16.9946259 90.6538837 7.33688091 97 7 96.307724 27.3261327 92.5000975 28 87.4807713 19.4091149 88.0576319 27.7192307"></polygon>
                    <path d="M75.4999533,22.6666903 C74.855652,22.6666903 74.33324,21.6966869 74.33324,20.5000188 C74.33324,19.3033507 74.855652,18.3334516 75.4999533,18.3334516 C76.1443589,18.3334516 76.6666667,19.3033507 76.6666667,20.5000188 C76.6666667,21.6966869 76.1443589,22.6666903 75.4999533,22.6666903 M81.9142678,11.9999917 C80.3615372,7.87745084 77.2337436,5 73.4999478,5 C68.2532859,5 64,10.5963825 64,17.5000522 C64,24.4037218 68.2532859,30 73.4999478,30 C78.7466098,30 83,24.4037218 83,17.5000522 C83,15.5093275 82.5434373,13.670443 81.9142678,11.9999917" id="Fill-19" fill="#00418D"></path>
                    <path d="M77.0810895,23.4622885 C75.9368752,23.4622885 75.0092067,22.0508582 75.0092067,20.3096594 C75.0092067,18.5684606 75.9368752,17.1569259 77.0810895,17.1569259 C78.2254114,17.1569259 79.0628436,18.5684606 79.0628436,20.3096594 C79.0628436,22.0508582 78.2254114,23.4622885 77.0810895,23.4622885 M76.025281,6 C71.9670138,6 66,10.5932794 66,18.0018013 C66,26.6428853 69.6910763,28.3307577 72.7499596,28.7778237 C74.0727083,28.9710931 75.2729165,29 76.012467,29 C78.9175825,29 81.6398562,27.6861436 82.9746651,24.5075296 C83.8490318,22.4255003 84,20.2049892 84,17.7777465 C84,15.4512085 82.9320236,12.4398789 81.6374872,10.2222898 C80.1234977,7.62870184 78.2129205,6 76.025281,6" id="Fill-21" fill="#B37B00"></path>
                    <path d="M76.5536456,22.876808 C75.1044294,22.876808 73.9295399,21.3016324 73.9295399,19.3585303 C73.9295399,17.4154281 75.1044294,15.8402525 76.5536456,15.8402525 C78.0028618,15.8402525 79.0637343,17.4154281 79.0637343,19.3585303 C79.0637343,21.3016324 78.0028618,22.876808 76.5536456,22.876808 M75.4683409,6 C71.6354834,6 66,10.2878978 66,17.2040485 C66,28.7589852 73.1006663,27.9893651 75.4145471,27.9893651 C78.1582421,27.9893651 80.7708818,26.2447347 82.0316056,23.2773657 C82.8573716,21.3337472 83,19.2604303 83,16.9946309 C83,12.2827348 79.3011983,6 75.4683409,6" id="Fill-23" fill="#FFCE00"></path>
                    <path d="M45.5000577,22.6666903 C44.8557564,22.6666903 44.3333443,21.6966869 44.3333443,20.5000188 C44.3333443,19.3033507 44.8557564,18.3334516 45.5000577,18.3334516 C46.1443589,18.3334516 46.666771,19.3033507 46.666771,20.5000188 C46.666771,21.6966869 46.1443589,22.6666903 45.5000577,22.6666903 M51.9143722,11.9999917 C50.3616416,7.87745084 47.233848,5 43.5000522,5 C38.2533902,5 34,10.5963825 34,17.5000522 C34,24.4037218 38.2533902,30 43.5000522,30 C48.7467141,30 53,24.4037218 53,17.5000522 C53,15.5093275 52.5435417,13.670443 51.9143722,11.9999917" id="Fill-25" fill="#00418D"></path>
                    <path d="M47.0810895,23.4622885 C45.9368752,23.4622885 45.0092067,22.0508582 45.0092067,20.3096594 C45.0092067,18.5684606 45.9368752,17.1569259 47.0810895,17.1569259 C48.2253037,17.1569259 49.0628436,18.5684606 49.0628436,20.3096594 C49.0628436,22.0508582 48.2253037,23.4622885 47.0810895,23.4622885 M46.025281,6 C41.9670138,6 36,10.5932794 36,18.0018013 C36,26.6428853 39.6910763,28.3307577 42.7499596,28.7778237 C44.0727083,28.9710931 45.2729165,29 46.012467,29 C48.9174748,29 51.6398562,27.6861436 52.9745575,24.5075296 C53.8489241,22.4255003 54,20.2049892 54,17.7777465 C54,15.4512085 52.9320236,12.4398789 51.6373795,10.2222898 C50.1234977,7.62870184 48.2129205,6 46.025281,6" id="Fill-27" fill="#B37B00"></path>
                    <path d="M46.5537528,22.876808 C45.1044294,22.876808 43.9295399,21.3016324 43.9295399,19.3585303 C43.9295399,17.4154281 45.1044294,15.8402525 46.5537528,15.8402525 C48.0029689,15.8402525 49.0638415,17.4154281 49.0638415,19.3585303 C49.0638415,21.3016324 48.0029689,22.876808 46.5537528,22.876808 M45.468448,6 C41.6355906,6 36,10.2878978 36,17.2040485 C36,28.7589852 43.1007734,27.9893651 45.4146543,27.9893651 C48.1582421,27.9893651 50.770989,26.2447347 52.0317127,23.2773657 C52.8573716,21.3337472 53,19.2604303 53,16.9946309 C53,12.2827348 49.3011983,6 45.468448,6" id="Fill-29" fill="#FFCE00"></path>
                    <path d="M50.8376105,5.4981956 L67.7821181,5.00053273 C68.5024398,4.9788719 69.0741847,5.62086881 68.9921504,6.35926712 L67.9540886,14.9348103 C67.8773569,15.6262411 67.3098748,16.1482456 66.6350931,16.1482456 L62.8377043,16.1482456 L64.3542477,29.7429885 C64.4332668,30.4277709 63.9513541,31.0459624 63.2859299,31.1131967 L54.5743833,31.9939989 C53.8522941,32.0670238 53.2346973,31.4638448 53.265889,30.7162245 L53.8709052,15.8057471 L49,15.8057471 L49.6924571,6.6233791 C49.7393487,6.001649 50.2332182,5.51642501 50.8376105,5.4981956" id="Fill-31" fill="#00418D"></path>
                    <polygon id="Fill-33" fill="#B37B00" points="52.1480157 5.27715574 51 13.7020862 56.9698543 13.7020862 56.0513986 29 65.4653001 28.1130392 63.8580565 13.5912031 68.7946212 13.8128652 70 5"></polygon>
                    <polygon id="Fill-35" fill="#FFCE00" points="51.6799659 5 68 5 67.0934142 12.4777827 61.7667305 12.4777827 63.5800085 27.2069002 55.5333546 28 56.5533035 12.137898 51 12.3645588"></polygon>
                    <path d="M37.4171899,14.1923467 L31.0724995,14.1923467 L39.9716846,22.342653 C39.9716846,22.342653 40.9156692,29.1680018 31.902649,29.9445142 C31.902649,29.9445142 27.4552842,30.4437825 22,28.4470216 L23.1860234,18.2414008 L26.9810085,20.5708337 L28.99707,21.2364901 L29.7085949,21.2364901 L22.9487741,16.9100879 L23.4231612,7.48097946 C23.4231612,7.48097946 30.4202312,3.15478561 38.4845886,5.92795474 L38.8403511,6.18707003 L37.4171899,14.1923467 Z" id="Fill-37" fill="#00418D"></path>
                    <path d="M38.8902695,6.24186998 L37.2664591,13.5339734 L34.8725751,13.2709135 C34.3148192,13.2096885 33.7463875,13.2708098 33.2265416,13.4727485 C32.4798895,13.7626851 31.8862934,14.301465 33.7242734,15.1623505 C33.7622923,15.1801992 33.8011827,15.1964913 33.8403999,15.2117456 C34.4780064,15.4602776 40.5809671,17.9893884 39.9550169,23.5308723 C39.9455394,23.6150307 39.935844,23.6995004 39.9276737,23.7838664 C39.8592615,24.4912744 39.0964867,29.364472 31.0979185,28.9782357 C30.448329,28.9467931 29.8027701,28.8594178 29.1671244,28.728251 L23,27.4554977 L24.6239194,19.389884 C24.6239194,19.389884 29.0313893,22.2625811 31.2351787,21.3786583 C31.2351787,21.3786583 32.196654,21.0816653 30.307147,19.5004003 C28.0666459,17.6251516 22.7680738,15.6332641 23.1160176,11.9872642 C23.1160176,11.9872642 23.8119052,4.58454073 38.8902695,6.24186998" id="Fill-39" fill="#B37B00"></path>
                    <path d="M37.5779265,6.09555059 L36.0502297,12.2103823 L33.757029,12.2103823 C33.2445961,12.2103823 32.7344809,12.3068663 32.2718234,12.5153929 C31.663261,12.7895997 31.0737921,13.2648148 31.5583022,14.0043168 C31.678602,14.1880959 31.8468009,14.3397137 32.0368525,14.4595878 L36.7553629,17.4357649 C36.7553629,17.4357649 39.1910471,19.0927005 38.9879723,22.5499403 C38.8869867,24.2697367 37.8314389,27.3032404 32.9871104,27.9106512 C31.6738562,28.0753214 30.3396324,28.0070308 29.0430436,27.7498445 L23.0067539,26.5523566 L24.2993695,19.9928004 C24.2993695,19.9928004 27.0816054,21.8152416 30.195383,21.5953332 C30.6286829,21.5648426 31.0428894,21.3788707 31.3022513,21.0491125 C31.6057599,20.6633852 31.7342268,20.0532595 30.8798777,19.2145586 C28.7375484,17.1117498 22.7716727,15.4345568 23.0067539,11.876865 C23.3145668,7.21639423 30.5001056,5.56415752 37.5779265,6.09555059" id="Fill-41" fill="#FFCE00"></path>
                    <path d="M14.2015485,26.9195172 L13,6.91973548 L23.363802,6.00247068 C23.7223747,5.97062617 24.025059,6.25100076 23.998358,6.59006314 L22.334243,27.8575013 C22.327865,27.9386436 22.2556532,28.0011078 22.1694962,27.9999851 L15.2993196,27.9075135 C14.7162199,27.8995524 14.2379787,27.4691412 14.2015485,26.9195172" id="Fill-43" fill="#00418D"></path>
                    <path d="M24,7 C24,7 22.8266587,28.2204258 22.8266587,27.9982678 C22.8266587,27.7761097 16.6399679,27.5539516 16.6399679,27.5539516 L16,7.33328927 L24,7 Z" id="Fill-45" fill="#B37B00"></path>
                    <polygon id="Fill-47" fill="#FFCE00" points="23 8 21.8333167 27 16.7423261 27 16 8.64413444"></polygon>
                    <path d="M1,4.33037916 L1,29 L12.3333681,28.6695174 L10.8888599,21.4008656 C10.8888599,21.4008656 13.2221758,21.2907047 15,19.5285446 L14.3333681,6.97361932 L6.11108792,4 L1,4.33037916 Z" id="Fill-49" fill="#00418D"></path>
                    <path d="M10.7396907,15.8709344 L10.4705546,11.3996997 C10.5747914,11.3834544 10.6813778,11.3749099 10.7898867,11.3749099 C11.9780369,11.3749099 12.9411595,12.3816919 12.9411595,13.6236078 C12.9411595,14.8655237 11.9780369,15.8723058 10.7898867,15.8723058 C10.7730123,15.8723058 10.7564583,15.8713564 10.7396907,15.8709344 M20,11.3772306 C20,8.43083185 17.6515744,6.2717991 14.859181,5.06690967 C12.9410527,4.23924705 10.8299367,3.90337172 8.72875308,4.02373408 L3,4.30137976 L3.35297407,28 C3.35297407,28 12.4269174,27.7549503 12.4381314,27.775415 C12.5445042,27.7549503 11.3010316,20.4748737 11.3010316,20.4748737 C15.9631728,20.0255983 20,16.0916163 20,11.3772306" id="Fill-51" fill="#B37B00"></path>
                    <path d="M10.2274812,17.2707695 L9.80386242,11.2084599 C9.96795711,11.1865062 10.1356715,11.1748399 10.3065669,11.1748399 C12.1769831,11.1748399 13.6934331,12.5398963 13.6934331,14.2237592 C13.6934331,15.9075161 12.1769831,17.2725724 10.3065669,17.2725724 C10.2800222,17.2725724 10.2539162,17.2712998 10.2274812,17.2707695 M20,12.4169765 C20,9.4547056 17.6686708,7.28393616 14.8966113,6.07255602 C12.9925206,5.24043481 10.8968033,4.90285619 8.81095793,5.02386694 L4,5.30300829 L4,28 C4,28 11.9999452,27.9435778 12.0111334,27.9641528 C12.1167639,27.9435778 10.7736225,20.5472865 10.7736225,20.5472865 C14.9662638,20.5472865 20,17.1566524 20,12.4169765" id="Fill-53" fill="#FFCE00"></path>
                </g>
            </g>
        </g>
    </g>
</svg>