<?xml version="1.0" encoding="UTF-8"?>
<svg width="16px" height="16px" viewBox="0 0 16 16" version="1.1" xmlns="http://www.w3.org/2000/svg" xmlns:xlink="http://www.w3.org/1999/xlink">
    <!-- Generator: Sketch 47.1 (45422) - http://www.bohemiancoding.com/sketch -->
    <title>Carrito de compra</title>
    <desc>Created with Sketch.</desc>
    <defs></defs>
    <g id="WEB-PISOTON-2" stroke="none" stroke-width="1" fill="none" fill-rule="evenodd">
        <g id="PADRES-DESKTOP-1440-" transform="translate(-329.000000, -2922.000000)" fill="#FFFFFF">
            <g id="TODO" transform="translate(-314.000000, 0.000000)">
                <g id="PHOTOBOOK" transform="translate(528.000000, 2600.000000)">
                    <g id="Button" transform="translate(3.000000, 309.000000)">
                        <path d="M118.93106,27.5856354 C118.93106,28.3668361 118.310499,29 117.544848,29 C116.779197,29 116.158636,28.3668361 116.158636,27.5856354 C116.158636,26.8044346 116.779197,26.1712707 117.544848,26.1712707 C118.310499,26.1712707 118.93106,26.8044346 118.93106,27.5856354 Z M124.937978,27.5856354 C124.937978,28.3668361 124.317417,29 123.551766,29 C122.786115,29 122.165554,28.3668361 122.165554,27.5856354 C122.165554,26.8044346 122.786115,26.1712707 123.551766,26.1712707 C124.317417,26.1712707 124.937978,26.8044346 124.937978,27.5856354 Z M117.525903,23.3720074 C117.288861,23.3720074 117.09017,23.1890829 117.066143,22.9486409 L116.592982,18.2340921 C116.56572,17.9559337 116.779197,17.7145488 117.053205,17.7145488 L125.118648,17.7145488 C125.436553,17.7145488 125.660195,18.036081 125.553919,18.3425267 L123.929278,23.0570755 C123.864588,23.2456575 123.689925,23.3720074 123.494008,23.3720074 L117.525903,23.3720074 Z M124.475908,25.2578269 L116.274154,25.2578269 C115.800531,25.2578269 115.40315,24.8919779 115.355095,24.4110939 L114.442505,15.309186 C114.418016,15.068744 114.220249,14.8858195 113.983207,14.8858195 L112.462071,14.8858195 C112.207008,14.8858195 112,14.6746077 112,14.4143646 L112,13.4714549 C112,13.2112118 112.207008,13 112.462071,13 L115.234495,13 C115.708117,13 116.105498,13.365849 116.153553,13.846733 L116.310195,15.4053628 C116.334223,15.6458048 116.532913,15.8287293 116.769955,15.8287293 L127.075055,15.8287293 C127.712251,15.8287293 128.158149,16.4713223 127.946982,17.0846851 L125.347835,24.6279632 C125.217531,25.0051271 124.868206,25.2578269 124.475908,25.2578269" id="Carrito-de-compra"></path>
                    </g>
                </g>
            </g>
        </g>
    </g>
</svg>